<svg width="42" height="43" viewBox="0 0 42 43" fill="none" xmlns="http://www.w3.org/2000/svg">
<path d="M17.9371 15.2921C21.2215 7.45092 32.5074 5.37814 38.3606 11.602C44.2691 17.1085 42.7312 27.9223 35.5724 31.5681C36.2455 27.157 34.7591 22.6002 31.7809 19.4855C28.3711 15.7715 22.8517 14.1045 17.9371 15.2902V15.2921ZM33.8426 29.4363C33.8463 24.6029 31.1059 20.2804 26.8829 18.1486C28.7418 27.7988 19.4309 36.9197 9.7659 34.7787C11.811 39.1216 16.1078 42.0039 21.0795 42.0629C28.0189 42.2307 33.9366 36.289 33.8407 29.4363H33.8426ZM18.4811 26.8306C10.5294 25.453 5.05054 17.0163 7.10671 9.13825C-0.590584 12.4798 -2.47527 23.8063 3.63425 29.4621C9.13522 35.2987 19.6503 33.9083 23.4658 26.9118C21.8466 27.1718 20.0837 27.1386 18.483 26.8306H18.4811ZM8.58385 12.572C8.58385 17.2966 11.1933 21.5307 15.265 23.7159C12.7829 13.8942 22.1934 4.10015 32.1608 6.27435C25.7949 -4.83639 8.55618 -0.231625 8.58385 12.5738V12.572Z" fill="url(#paint0_linear_24_2869)"/>
<defs>
<linearGradient id="paint0_linear_24_2869" x1="10.0491" y1="-44.3599" x2="56.4399" y2="-30.6156" gradientUnits="userSpaceOnUse">
<stop stop-color="#00B4FD"/>
<stop offset="1" stop-color="#003ACE"/>
</linearGradient>
</defs>
</svg>
