<svg width="38" height="38" viewBox="0 0 38 38" fill="none" xmlns="http://www.w3.org/2000/svg">
<path d="M36.8088 27.9059C35.4162 25.8228 33.1619 24.8629 30.9706 25.0223C29.3124 25.1423 27.6679 24.6465 26.4916 23.4702L25.7914 22.77C23.6709 20.6495 23.6709 17.2131 25.7914 15.0926L26.4916 14.3923C27.6679 13.216 29.3104 12.7203 30.9687 12.8403C33.1619 12.9996 35.4201 12.0377 36.8128 9.94872C38.1995 7.86758 38.2153 5.06454 36.8442 2.97357C34.5192 -0.573027 29.7097 -0.932994 26.8831 1.89563C25.4747 3.30207 24.861 5.20025 25.036 7.03945C25.1875 8.64259 24.6151 10.23 23.4761 11.3689L22.7719 12.0731C20.6515 14.1936 17.215 14.1936 15.0945 12.0731L14.3943 11.3729C13.218 10.1966 12.7223 8.55408 12.8423 6.89389C12.9996 4.70259 12.0417 2.44836 9.95858 1.05569C7.8794 -0.335014 5.07635 -0.354677 2.98144 1.01439C-0.573025 3.33551 -0.934955 8.15084 1.89563 10.9814C3.30404 12.3898 5.20224 13.0036 7.03947 12.8285C8.64261 12.6771 10.23 13.2494 11.3689 14.3884L12.0732 15.0945C14.1936 17.215 14.1936 20.6514 12.0732 22.7719L11.3729 23.4722C10.1966 24.6485 8.5541 25.1442 6.89391 25.0242C4.70261 24.8649 2.45034 25.8248 1.0557 27.9079C-0.335008 29.9871 -0.354683 32.7901 1.01439 34.885C3.33551 38.4395 8.15086 38.8034 10.9814 35.9709C12.3899 34.5624 13.0036 32.6662 12.8285 30.827C12.677 29.2239 13.2494 27.6365 14.3884 26.4975L15.0926 25.7933C17.2131 23.6728 20.6495 23.6728 22.77 25.7933L23.4742 26.4975C24.6131 27.6365 25.1855 29.2239 25.034 30.827C24.859 32.6662 25.4747 34.5624 26.8811 35.9709C29.7117 38.8014 34.5271 38.4395 36.8482 34.885C38.2153 32.7901 38.1976 29.9871 36.8069 27.9079L36.8088 27.9059Z" fill="url(#paint0_linear_24_2881)"/>
<defs>
<linearGradient id="paint0_linear_24_2881" x1="9.0592" y1="-39.9177" x2="50.868" y2="-27.5085" gradientUnits="userSpaceOnUse">
<stop stop-color="#00B4FD"/>
<stop offset="1" stop-color="#003ACE"/>
</linearGradient>
</defs>
</svg>
