<svg width="47" height="49" viewBox="0 0 47 49" fill="none" xmlns="http://www.w3.org/2000/svg">
<path d="M28.4258 10.0898L32.9433 14.6092L26.8757 20.6767C24.8132 22.7411 22.0823 23.7858 19.3782 23.7822C16.676 23.7858 13.9432 22.7411 11.8807 20.6767L5.81309 14.6092L10.3306 10.0898L16.3982 16.1574C17.2297 16.9853 18.2887 17.3885 19.3764 17.3921C20.4642 17.3885 21.5232 16.9871 22.3546 16.1574L28.4222 10.0898H28.4258ZM38.7582 38.5138L32.6907 32.4463C31.8628 31.6148 31.4614 30.5558 31.4578 29.4681C31.4614 28.3785 31.8628 27.3195 32.6907 26.4898L38.7582 20.4223L34.2407 15.9029L28.1731 21.9705C26.1088 24.0331 25.0641 26.7658 25.0677 29.4681C25.0641 32.1703 26.1088 34.9031 28.1731 36.9638L34.2407 43.0314L38.76 38.5138H38.7582ZM10.3324 48.8463L16.4 42.7787C17.2314 41.949 18.2887 41.5476 19.3782 41.544C20.4659 41.5476 21.525 41.949 22.3564 42.7787L28.424 48.8463L32.9433 44.3269L26.8757 38.2594C24.8132 36.1951 22.0823 35.1503 19.3782 35.1539C16.676 35.1503 13.9432 36.1951 11.8807 38.2594L5.81309 44.3269L10.3324 48.8463ZM0 20.4223L6.06758 26.4898C6.89546 27.3213 7.29684 28.3803 7.30042 29.4681C7.29684 30.5558 6.89546 31.6148 6.06758 32.4463L0 38.5138L4.51931 43.0332L10.5869 36.9656C12.6512 34.9031 13.6959 32.1721 13.6924 29.4698C13.6959 26.7676 12.6512 24.0348 10.5869 21.9723L4.51931 15.9047L0 20.4241V20.4223Z" fill="url(#paint0_linear_24_2899)"/>
<defs>
<linearGradient id="paint0_linear_24_2899" x1="9.27389" y1="-30.7796" x2="52.0744" y2="-18.0778" gradientUnits="userSpaceOnUse">
<stop stop-color="#00B4FD"/>
<stop offset="1" stop-color="#003ACE"/>
</linearGradient>
</defs>
</svg>
