<svg width="47" height="49" viewBox="0 0 47 49" fill="none" xmlns="http://www.w3.org/2000/svg">
<path d="M18.4965 10.2429H12.3356C12.3356 13.6586 10.9603 16.7217 8.72294 18.9643C6.4804 21.2016 3.41722 22.5751 0.00158691 22.5769V28.7378C5.09998 28.7378 9.74231 26.6628 13.0802 23.3198C16.4215 19.9819 18.4982 15.3396 18.4982 10.2429H18.4965Z" fill="url(#paint0_linear_24_2887)"/>
<path d="M38.7572 22.5769C35.3416 22.5769 32.2767 21.2016 30.0359 18.9643C27.7985 16.7217 26.425 13.6586 26.4233 10.2429H20.2623C20.2623 15.3396 22.3373 19.9836 25.6786 23.3198C29.0165 26.6628 33.6588 28.7395 38.7572 28.7378V22.5769Z" fill="url(#paint1_linear_24_2887)"/>
<path d="M25.6803 35.9214C22.3389 39.2593 20.2622 43.9016 20.2639 49H26.4249C26.4249 45.5844 27.8001 42.5194 30.0375 40.2786C32.28 38.0413 35.3432 36.6678 38.7588 36.666V30.5051C33.6621 30.5051 29.0181 32.5801 25.6803 35.9214Z" fill="url(#paint2_linear_24_2887)"/>
<path d="M0.00172937 30.5051V36.6661C3.41736 36.6661 6.48227 38.0413 8.72308 40.2786C10.9604 42.5212 12.334 45.5844 12.3357 49H18.4966C18.4966 43.9016 16.4217 39.2593 13.0786 35.9214C9.74072 32.5801 5.0984 30.5034 0 30.5051H0.00172937Z" fill="url(#paint3_linear_24_2887)"/>
<defs>
<linearGradient id="paint0_linear_24_2887" x1="4.42716" y1="-9.26028" x2="24.8519" y2="-3.19889" gradientUnits="userSpaceOnUse">
<stop stop-color="#00B4FD"/>
<stop offset="1" stop-color="#003ACE"/>
</linearGradient>
<linearGradient id="paint1_linear_24_2887" x1="24.6875" y1="-9.26028" x2="45.1107" y2="-3.19993" gradientUnits="userSpaceOnUse">
<stop stop-color="#00B4FD"/>
<stop offset="1" stop-color="#003ACE"/>
</linearGradient>
<linearGradient id="paint2_linear_24_2887" x1="24.6891" y1="11.0019" x2="45.1123" y2="17.0623" gradientUnits="userSpaceOnUse">
<stop stop-color="#00B4FD"/>
<stop offset="1" stop-color="#003ACE"/>
</linearGradient>
<linearGradient id="paint3_linear_24_2887" x1="4.42558" y1="11.0019" x2="24.8503" y2="17.0633" gradientUnits="userSpaceOnUse">
<stop stop-color="#00B4FD"/>
<stop offset="1" stop-color="#003ACE"/>
</linearGradient>
</defs>
</svg>
