<svg width="39" height="39" viewBox="0 0 39 39" fill="none" xmlns="http://www.w3.org/2000/svg">
<path d="M35.4946 23.2332C34.7721 21.9745 33.9379 20.6828 33.0042 19.3807C33.9379 18.0765 34.7721 16.7868 35.4946 15.5281C37.5668 11.9012 38.7509 8.55385 38.7613 5.784C38.7613 4.94767 38.6495 4.161 38.4011 3.44059C38.1526 2.72019 37.7635 2.0681 37.2273 1.534C36.6932 0.999909 36.0411 0.608619 35.3207 0.360202C34.6003 0.111785 33.8136 0 32.9773 0C30.2095 0.00828055 26.8601 1.19448 23.2332 3.26668C21.9745 3.98916 20.6827 4.82343 19.3806 5.75707C18.0764 4.82343 16.7868 3.98916 15.5281 3.26668C11.9012 1.19448 8.55382 0.0103507 5.78398 0C4.94764 0 4.16098 0.111785 3.44057 0.360202C2.72016 0.608619 2.06807 0.997839 1.53398 1.534C0.999884 2.06603 0.608644 2.72018 0.360227 3.43852C0.111811 4.15893 0 4.9456 0 5.78193C0.00828055 8.54971 1.19448 11.8992 3.26668 15.526C3.98916 16.7847 4.82343 18.0765 5.75707 19.3786C4.82343 20.6828 3.98916 21.9724 3.26668 23.2311C1.19448 26.858 0.0103507 30.2075 0 32.9752C0 33.8116 0.111811 34.5982 0.360227 35.3186C0.608644 36.0391 0.997814 36.6911 1.53398 37.2252C2.06807 37.7593 2.72016 38.1506 3.44057 38.3969C4.16098 38.6453 4.94764 38.7571 5.78398 38.7571C8.55175 38.7488 11.9012 37.5627 15.5281 35.4905C16.7868 34.768 18.0785 33.9337 19.3806 33.0001C20.6827 33.9337 21.9745 34.768 23.2332 35.4905C26.8601 37.5627 30.2075 38.7468 32.9773 38.7571C33.8136 38.7571 34.6003 38.6453 35.3207 38.3969C36.0411 38.1485 36.6932 37.7593 37.2273 37.2252C37.7614 36.6911 38.1527 36.0391 38.399 35.3186C38.6474 34.5982 38.7592 33.8116 38.7592 32.9752C38.7509 30.2075 37.5647 26.858 35.4925 23.2311L35.4946 23.2332ZM24.1523 4.8669C27.6012 2.88163 30.7519 1.83624 32.9773 1.84453C33.648 1.84453 34.2318 1.93561 34.7183 2.10329C35.2069 2.27304 35.5981 2.51526 35.9231 2.83613C36.246 3.15907 36.4883 3.55236 36.6559 4.04091C36.8236 4.5274 36.9147 5.11121 36.9147 5.78193C36.923 8.0094 35.8776 11.1601 33.8923 14.6069C33.292 15.6544 32.6068 16.7288 31.8449 17.8218C30.3462 15.8821 28.6341 13.932 26.7296 12.0275C24.8251 10.1251 22.875 8.411 20.9353 6.91222C22.0263 6.15041 23.1027 5.46516 24.1502 4.86482L24.1523 4.8669ZM30.7146 19.3786C29.191 21.3928 27.4169 23.434 25.4275 25.4234C23.4381 27.4128 21.3949 29.1869 19.3827 30.7105C17.3685 29.1869 15.3273 27.4128 13.3379 25.4234C11.3485 23.434 9.57439 21.3908 8.05077 19.3786C9.57439 17.3664 11.3485 15.3232 13.3379 13.3338C15.3273 11.3444 17.3705 9.57027 19.3827 8.04665C21.3949 9.57027 23.4381 11.3444 25.4275 13.3338C27.4169 15.3232 29.191 17.3664 30.7146 19.3786ZM4.86897 14.6069C2.88371 11.1581 1.83829 8.00733 1.84657 5.78193C1.84657 5.11121 1.93766 4.5274 2.10534 4.04091C2.27509 3.55236 2.5173 3.16114 2.83818 2.8382C3.16319 2.51526 3.55443 2.27304 4.04299 2.10329C4.52947 1.93561 5.11325 1.84453 5.78398 1.84453C8.01145 1.83624 11.1622 2.88163 14.609 4.8669C15.6565 5.46724 16.7329 6.15248 17.8239 6.91429C15.8842 8.41307 13.9341 10.1251 12.0296 12.0296C10.1271 13.9341 8.41304 15.8842 6.91427 17.8239C6.15245 16.7329 5.46724 15.6565 4.8669 14.609L4.86897 14.6069ZM14.611 33.8903C11.1622 35.8755 8.01145 36.9209 5.78605 36.9126C5.11533 36.9126 4.53154 36.8216 4.04506 36.6539C3.5565 36.4841 3.16526 36.2419 2.84025 35.921C2.51731 35.5981 2.27509 35.2048 2.10741 34.7163C1.93973 34.2298 1.84657 33.646 1.84864 32.9752C1.84036 30.7478 2.88578 27.597 4.87104 24.1503C5.47138 23.1028 6.1566 22.0263 6.91841 20.9353C8.41719 22.8751 10.1292 24.8251 12.0337 26.7296C13.9382 28.6321 15.8883 30.3462 17.828 31.8449C16.7371 32.6068 15.6606 33.292 14.6131 33.8923L14.611 33.8903ZM36.6559 34.7142C36.4862 35.2027 36.246 35.594 35.9231 35.919C35.6002 36.2419 35.2069 36.4821 34.7183 36.6518C34.2318 36.8216 33.648 36.9106 32.9773 36.9106C30.7498 36.9188 27.5991 35.8735 24.1523 33.8882C23.1048 33.2879 22.0304 32.6026 20.9394 31.8408C22.8792 30.342 24.8292 28.63 26.7338 26.7255C28.6362 24.821 30.3503 22.8709 31.8491 20.9312C32.6109 22.0222 33.2961 23.0986 33.8965 24.1461C35.8817 27.595 36.9271 30.7457 36.9189 32.9711C36.9189 33.6418 36.8278 34.2256 36.6601 34.7121L36.6559 34.7142Z" fill="url(#paint0_linear_24_2875)"/>
<defs>
<linearGradient id="paint0_linear_24_2875" x1="9.27419" y1="-40.8702" x2="52.076" y2="-28.1678" gradientUnits="userSpaceOnUse">
<stop stop-color="#00B4FD"/>
<stop offset="1" stop-color="#003ACE"/>
</linearGradient>
</defs>
</svg>
